/vscmnt/brussel_pixiu_data/_data_brussel/112/vsc11236/PredSimResults/SUBJ09opt3D/weighted-LRposFixed/expIG/worker_04.mot
version=1
nRows=4
nColumns=50
inDegrees=yes
endheader
                time	         pelvis_tilt	         pelvis_list	     pelvis_rotation	           pelvis_tx	           pelvis_ty	           pelvis_tz	       hip_flexion_r	     hip_adduction_r	      hip_rotation_r	        knee_angle_r	       ankle_angle_r	         mtp_angle_r	       hip_flexion_l	     hip_adduction_l	      hip_rotation_l	        knee_angle_l	       ankle_angle_l	         mtp_angle_l	    lumbar_extension	      lumbar_bending	     lumbar_rotation	 ercspn_r/activation	 intobl_r/activation	 extobl_r/activation	    abd_r/activation	    add_r/activation	hamstrings_r/activation	bifemsh_r/activation	glut_max_r/activation	iliopsoas_r/activation	rect_fem_r/activation	  vasti_r/activation	gastroc_r/activation	 soleus_r/activation	tib_ant_r/activation	 ercspn_l/activation	 intobl_l/activation	 extobl_l/activation	    abd_l/activation	    add_l/activation	hamstrings_l/activation	bifemsh_l/activation	glut_max_l/activation	iliopsoas_l/activation	rect_fem_l/activation	  vasti_l/activation	gastroc_l/activation	 soleus_l/activation	tib_ant_l/activation	
          0.00000000	         -3.89792624	         -1.29118697	          7.74218952	          0.00000000	          0.99503944	         -0.00198548	         24.44327408	         -0.21082624	         -6.09492742	          1.89575878	          2.95513762	          0.22017412	        -11.23384486	         -2.65896318	         -4.78137478	        -12.47316809	          5.13773601	         36.36872942	        -12.61745836	         -1.47619024	        -10.70227938	          0.04222613	          0.20751015	          0.05378209	          0.00999999	          0.24481626	          0.05455663	          0.01223291	          0.00999999	          0.10290677	          0.02739368	          0.03420014	          0.01382726	          0.01261543	          0.31473889	          0.00999999	          0.00999999	          0.00999999	          0.05507133	          0.00999999	          0.01333310	          0.28108457	          0.01830585	          0.00999999	          0.01000000	          0.00999999	          0.31578653	          0.26282387	          0.01223291	
          0.01339752	         -3.97492502	         -1.46312253	          7.71213197	          0.02015532	          0.99283516	         -0.00095174	         24.03128991	          0.21291602	         -6.51816884	          1.29487782	          2.28395686	          0.25571457	        -11.75272954	         -3.07360749	         -5.35381005	        -13.40446433	          4.11461599	         38.11517796	        -11.98154061	         -0.94064391	        -10.89854161	          0.03451844	          0.16963256	          0.04396505	          0.00999999	          0.27816598	          0.06017423	          0.00999999	          0.04879400	          0.08412282	          0.02239341	          0.06240640	          0.01130332	          0.01031269	          0.33627602	          0.00999999	          0.00999999	          0.00999999	          0.04501896	          0.00999999	          0.02258146	          0.25668153	          0.01496442	          0.00999999	          0.00999999	          0.00999999	          0.28948757	          0.24103699	          0.00999999	
          0.02679504	         -4.02448707	         -1.66822943	          7.64908155	          0.04079709	          0.99072616	          0.00003680	         23.51236995	          0.58928533	         -6.79944834	          0.34268658	          1.61728807	          0.21674070	        -12.14611345	         -3.54121433	         -5.95371365	        -14.64935671	          2.96221600	         39.84646367	        -11.31168785	         -0.34584821	        -11.03592237	          0.02821766	          0.13866890	          0.03593995	          0.06890559	          0.22739131	          0.07035057	          0.00999999	          0.05663979	          0.06876757	          0.01830586	          0.05101513	          0.01223291	          0.01223291	          0.39304425	          0.00999999	          0.00999999	          0.00999999	          0.03680148	          0.00999999	          0.03325903	          0.23024999	          0.01223291	          0.02594547	          0.00999999	          0.00999999	          0.25346991	          0.21466650	          0.00999999	
          0.04019256	         -4.05334162	         -1.92503289	          7.55151238	          0.06157741	          0.98899092	          0.00109378	         22.83526613	          1.02324847	         -7.13110579	         -0.33736669	          0.71876745	          0.20239791	        -12.30961887	         -4.09477463	         -6.57481987	        -16.32715803	          1.64079481	         41.47567805	        -10.64251287	          0.31510811	        -11.10693534	          0.02306699	          0.11335716	          0.02937970	          0.12855671	          0.18588474	          0.07192218	          0.01496442	          0.07222503	          0.05621517	          0.01496442	          0.04170315	          0.00999999	          0.00999999	          0.45606410	          0.00999999	          0.00999999	          0.00999999	          0.03008397	          0.00999999	          0.05112729	          0.18822161	          0.00999999	          0.06121555	          0.00999999	          0.00999999	          0.20720312	          0.17548263	          0.00999999	
